<svg width="24" height="24" viewBox="0 0 24 24" fill="none" xmlns="http://www.w3.org/2000/svg">
<path fill-rule="evenodd" clip-rule="evenodd" d="M18 2C18.5304 2 19.039 2.21086 19.4141 2.58594C19.7891 2.96101 20 3.46957 20 4V10.333C21.785 11.6178 22.9482 13.713 22.9482 16.0801C22.9479 19.9882 19.7792 23.157 15.8711 23.1572C13.4129 23.1572 11.2481 21.9026 9.97949 20H4C3.46957 20 2.96101 19.7891 2.58594 19.4141C2.21086 19.039 2 18.5304 2 18V4C2 3.46957 2.21086 2.96101 2.58594 2.58594C2.96101 2.21086 3.46957 2 4 2H18ZM15.8711 11.0029C14.6344 11.0029 13.5008 11.4448 12.6201 12.1797C12.1383 12.5818 11.7318 13.0712 11.4258 13.624C11.1755 14.0765 10.9924 14.5712 10.8896 15.0947C10.8633 15.2286 10.8427 15.3645 10.8271 15.502C10.8245 15.5254 10.8217 15.5488 10.8193 15.5723C10.8053 15.7132 10.7981 15.8559 10.7959 16C10.7955 16.0263 10.7939 16.0527 10.7939 16.0791C10.7939 16.5895 10.8706 17.0822 11.0107 17.5469C11.6162 19.5553 13.431 21.0398 15.6094 21.1504L15.8711 21.1572C18.5872 21.157 20.8054 19.0232 20.9414 16.3408L20.9482 16.0801C20.9482 13.5764 19.1353 11.4969 16.751 11.0801C16.6606 11.0643 16.5695 11.051 16.4775 11.04C16.3634 11.0264 16.2482 11.0157 16.1318 11.0098L15.8711 11.0029ZM6 14C5.46957 14 4.96101 14.2109 4.58594 14.5859C4.21086 14.961 4 15.4696 4 16C4 16.5304 4.21086 17.039 4.58594 17.4141C4.96101 17.7891 5.46957 18 6 18C6.53043 18 7.03899 17.7891 7.41406 17.4141C7.78914 17.039 8 16.5304 8 16C8 15.4696 7.78914 14.961 7.41406 14.5859C7.03899 14.2109 6.53043 14 6 14ZM11 9C10.4696 9 9.96101 9.21086 9.58594 9.58594C9.21086 9.96101 9 10.4696 9 11C9 11.5304 9.21086 12.039 9.58594 12.4141C9.63412 12.4622 9.68496 12.5071 9.7373 12.5498C10.4096 11.3841 11.4039 10.4283 12.5996 9.80371C12.5427 9.72765 12.482 9.6539 12.4141 9.58594C12.039 9.21086 11.5304 9 11 9ZM6 4C5.46957 4 4.96101 4.21086 4.58594 4.58594C4.21086 4.96101 4 5.46957 4 6C4 6.53043 4.21086 7.03899 4.58594 7.41406C4.96101 7.78914 5.46957 8 6 8C6.53043 8 7.03899 7.78914 7.41406 7.41406C7.78914 7.03899 8 6.53043 8 6C8 5.46957 7.78914 4.96101 7.41406 4.58594C7.03899 4.21086 6.53043 4 6 4ZM16 4C15.4696 4 14.961 4.21086 14.5859 4.58594C14.2109 4.96101 14 5.46957 14 6C14 6.53043 14.2109 7.03899 14.5859 7.41406C14.961 7.78914 15.4696 8 16 8C16.5304 8 17.039 7.78914 17.4141 7.41406C17.7891 7.03899 18 6.53043 18 6C18 5.46957 17.7891 4.96101 17.4141 4.58594C17.039 4.21086 16.5304 4 16 4Z" fill="white"/>
<path d="M13.5543 13.9351H18.2083V18.5891H13.5543V13.9351Z" fill="white"/>
<path d="M16.4226 21.7036H15.4226V10.8207H16.4226V21.7036Z" fill="white"/>
</svg>
